# xmcd
#
# Track frame offsets: 
#        150
#        9505
#        32030
#        49837
#        66990
#        105235
#        125765
#        138447
#        155532
#        173530
#        206355
#        221180
#        238555
#
# Disc length: 3424 seconds
#
# Revision: 3
# Processed by: cddbd v1.5.2PL0 Copyright (c) Steve Scherf et al.
# Submitted via: ExactAudioCopy v0.95b4
#
DISCID=b20d5e0d
DTITLE=Nuno Mindelis - Texas Bound
DYEAR=1997
DGENRE=
TTITLE0=Hugs
TTITLE1=Hard To Bear
TTITLE2=Texas Bound
TTITLE3=You Don't Have To Go
TTITLE4=Egyption Preistess
TTITLE5=Back To Memphis
TTITLE6=Castles Made Of Sand
TTITLE7=You Got Me Running
TTITLE8=Avenue G
TTITLE9=Blues For Antone's
TTITLE10=They Call Me The Beast
TTITLE11=Monkey Jake
TTITLE12=What Can I Do
EXTD=
EXTT0=
EXTT1=
EXTT2=
EXTT3=
EXTT4=
EXTT5=
EXTT6=
EXTT7=
EXTT8=
EXTT9=
EXTT10=
EXTT11=
EXTT12=
PLAYORDER=
